<svg width="353" height="73" viewBox="0 0 353 73" fill="none" xmlns="http://www.w3.org/2000/svg">
<path d="M18.6667 45.1887V67.5293L22.3367 72.2372C23.1283 73.2524 24.8733 73.2524 25.665 72.2372L29.3333 67.5293V45.1887C27.6017 45.4625 25.8233 45.625 24 45.625C22.1767 45.625 20.3983 45.4625 18.6667 45.1887ZM24 0C10.745 0 0 9.19201 0 20.5312C0 31.8705 10.745 41.0625 24 41.0625C37.255 41.0625 48 31.8705 48 20.5312C48 9.19201 37.255 0 24 0ZM24 10.8359C17.75 10.8359 12.6667 15.1846 12.6667 20.5312C12.6667 21.4751 11.77 22.2422 10.6667 22.2422C9.56333 22.2422 8.66667 21.4751 8.66667 20.5312C8.66667 13.2983 15.5467 7.41406 24 7.41406C25.1033 7.41406 26 8.18113 26 9.125C26 10.0689 25.1033 10.8359 24 10.8359Z" fill="#FF1493"/>
<path d="M56.48 23.192H65.216V62H56.48V23.192ZM85.8468 22.744C91.6334 22.744 96.0761 23.7707 99.1748 25.824C102.273 27.84 103.823 31.1627 103.823 35.792C103.823 40.4587 102.255 43.8373 99.1188 45.928C95.9828 47.9813 91.5028 49.008 85.6788 49.008H82.9348V62H74.1988V23.752C76.1028 23.3787 78.1188 23.1173 80.2468 22.968C82.3748 22.8187 84.2414 22.744 85.8468 22.744ZM86.4068 30.192C85.7721 30.192 85.1374 30.2107 84.5027 30.248C83.9054 30.2853 83.3828 30.3227 82.9348 30.36V41.56H85.6788C88.7028 41.56 90.9801 41.1493 92.5108 40.328C94.0414 39.5067 94.8068 37.976 94.8068 35.736C94.8068 34.6533 94.6014 33.7573 94.1908 33.048C93.8174 32.3387 93.2574 31.7787 92.5108 31.368C91.8014 30.92 90.9241 30.6213 89.8788 30.472C88.8334 30.2853 87.6761 30.192 86.4068 30.192ZM149.619 54.496V62H123.691V23.192H132.427V54.496H149.619ZM161.488 42.568C161.488 44.472 161.712 46.1893 162.16 47.72C162.645 49.2507 163.317 50.576 164.176 51.696C165.072 52.7787 166.155 53.6187 167.424 54.216C168.693 54.8133 170.149 55.112 171.792 55.112C173.397 55.112 174.835 54.8133 176.104 54.216C177.411 53.6187 178.493 52.7787 179.352 51.696C180.248 50.576 180.92 49.2507 181.368 47.72C181.853 46.1893 182.096 44.472 182.096 42.568C182.096 40.664 181.853 38.9467 181.368 37.416C180.92 35.848 180.248 34.5227 179.352 33.44C178.493 32.32 177.411 31.4613 176.104 30.864C174.835 30.2667 173.397 29.968 171.792 29.968C170.149 29.968 168.693 30.2853 167.424 30.92C166.155 31.5173 165.072 32.376 164.176 33.496C163.317 34.5787 162.645 35.904 162.16 37.472C161.712 39.0027 161.488 40.7013 161.488 42.568ZM191.112 42.568C191.112 45.8907 190.608 48.8213 189.6 51.36C188.629 53.8613 187.285 55.9707 185.568 57.688C183.851 59.368 181.797 60.6373 179.408 61.496C177.056 62.3547 174.517 62.784 171.792 62.784C169.141 62.784 166.64 62.3547 164.288 61.496C161.936 60.6373 159.883 59.368 158.128 57.688C156.373 55.9707 154.992 53.8613 153.984 51.36C152.976 48.8213 152.472 45.8907 152.472 42.568C152.472 39.2453 152.995 36.3333 154.04 33.832C155.085 31.2933 156.485 29.1653 158.24 27.448C160.032 25.7307 162.085 24.4427 164.4 23.584C166.752 22.7253 169.216 22.296 171.792 22.296C174.443 22.296 176.944 22.7253 179.296 23.584C181.648 24.4427 183.701 25.7307 185.456 27.448C187.211 29.1653 188.592 31.2933 189.6 33.832C190.608 36.3333 191.112 39.2453 191.112 42.568ZM205.73 42.568C205.73 44.472 205.954 46.1893 206.402 47.72C206.887 49.2507 207.559 50.576 208.418 51.696C209.314 52.7787 210.397 53.6187 211.666 54.216C212.935 54.8133 214.391 55.112 216.034 55.112C217.639 55.112 219.077 54.8133 220.346 54.216C221.653 53.6187 222.735 52.7787 223.594 51.696C224.49 50.576 225.162 49.2507 225.61 47.72C226.095 46.1893 226.338 44.472 226.338 42.568C226.338 40.664 226.095 38.9467 225.61 37.416C225.162 35.848 224.49 34.5227 223.594 33.44C222.735 32.32 221.653 31.4613 220.346 30.864C219.077 30.2667 217.639 29.968 216.034 29.968C214.391 29.968 212.935 30.2853 211.666 30.92C210.397 31.5173 209.314 32.376 208.418 33.496C207.559 34.5787 206.887 35.904 206.402 37.472C205.954 39.0027 205.73 40.7013 205.73 42.568ZM235.354 42.568C235.354 45.8907 234.85 48.8213 233.842 51.36C232.871 53.8613 231.527 55.9707 229.81 57.688C228.093 59.368 226.039 60.6373 223.65 61.496C221.298 62.3547 218.759 62.784 216.034 62.784C213.383 62.784 210.882 62.3547 208.53 61.496C206.178 60.6373 204.125 59.368 202.37 57.688C200.615 55.9707 199.234 53.8613 198.226 51.36C197.218 48.8213 196.714 45.8907 196.714 42.568C196.714 39.2453 197.237 36.3333 198.282 33.832C199.327 31.2933 200.727 29.1653 202.482 27.448C204.274 25.7307 206.327 24.4427 208.642 23.584C210.994 22.7253 213.458 22.296 216.034 22.296C218.685 22.296 221.186 22.7253 223.538 23.584C225.89 24.4427 227.943 25.7307 229.698 27.448C231.453 29.1653 232.834 31.2933 233.842 33.832C234.85 36.3333 235.354 39.2453 235.354 42.568ZM265.54 62C264.756 60.7307 263.823 59.368 262.74 57.912C261.695 56.4187 260.538 54.944 259.268 53.488C258.036 51.9947 256.748 50.576 255.404 49.232C254.06 47.8507 252.716 46.6373 251.372 45.592V62H242.636V23.192H251.372V37.864C253.65 35.4747 255.927 32.992 258.204 30.416C260.519 27.8027 262.666 25.3947 264.644 23.192H275.004C272.354 26.328 269.684 29.352 266.996 32.264C264.346 35.176 261.546 38.1067 258.596 41.056C261.695 43.632 264.682 46.6933 267.556 50.24C270.468 53.7867 273.25 57.7067 275.9 62H265.54ZM296.094 62.784C293.368 62.784 291.016 62.4107 289.038 61.664C287.059 60.88 285.416 59.816 284.11 58.472C282.84 57.0907 281.888 55.4667 281.254 53.6C280.656 51.696 280.358 49.6053 280.358 47.328V23.192H289.094V46.6C289.094 48.168 289.262 49.512 289.598 50.632C289.971 51.7147 290.456 52.6107 291.054 53.32C291.688 53.992 292.435 54.4773 293.294 54.776C294.19 55.0747 295.16 55.224 296.206 55.224C298.334 55.224 300.051 54.5707 301.358 53.264C302.702 51.9573 303.374 49.736 303.374 46.6V23.192H312.11V47.328C312.11 49.6053 311.792 51.696 311.158 53.6C310.523 55.504 309.552 57.1467 308.246 58.528C306.939 59.872 305.278 60.9173 303.262 61.664C301.246 62.4107 298.856 62.784 296.094 62.784ZM332.159 22.744C337.946 22.744 342.389 23.7707 345.487 25.824C348.586 27.84 350.135 31.1627 350.135 35.792C350.135 40.4587 348.567 43.8373 345.431 45.928C342.295 47.9813 337.815 49.008 331.991 49.008H329.247V62H320.511V23.752C322.415 23.3787 324.431 23.1173 326.559 22.968C328.687 22.8187 330.554 22.744 332.159 22.744ZM332.719 30.192C332.085 30.192 331.45 30.2107 330.815 30.248C330.218 30.2853 329.695 30.3227 329.247 30.36V41.56H331.991C335.015 41.56 337.293 41.1493 338.823 40.328C340.354 39.5067 341.119 37.976 341.119 35.736C341.119 34.6533 340.914 33.7573 340.503 33.048C340.13 32.3387 339.57 31.7787 338.823 31.368C338.114 30.92 337.237 30.6213 336.191 30.472C335.146 30.2853 333.989 30.192 332.719 30.192Z" fill="black"/>
</svg>
