<svg id="visual" viewBox="0 0 900 600" width="900" height="600" xmlns="http://www.w3.org/2000/svg" xmlns:xlink="http://www.w3.org/1999/xlink" version="1.1"><path d="M0 90L21.5 104.3C43 118.7 86 147.3 128.8 149C171.7 150.7 214.3 125.3 257.2 111.5C300 97.7 343 95.3 385.8 104.2C428.7 113 471.3 133 514.2 151.3C557 169.7 600 186.3 642.8 173.8C685.7 161.3 728.3 119.7 771.2 103.5C814 87.3 857 96.7 878.5 101.3L900 106L900 0L878.5 0C857 0 814 0 771.2 0C728.3 0 685.7 0 642.8 0C600 0 557 0 514.2 0C471.3 0 428.7 0 385.8 0C343 0 300 0 257.2 0C214.3 0 171.7 0 128.8 0C86 0 43 0 21.5 0L0 0Z" fill="#123160" stroke-linecap="round" stroke-linejoin="miter"></path></svg>